<?xml version="1.0" encoding="UTF-8"?>
<svg xmlns="http://www.w3.org/2000/svg" xmlns:xlink="http://www.w3.org/1999/xlink" width="854" height="480" viewBox="0 0 854 480">
<defs>
<g>
<g id="glyph-0-0">
<path d="M 4.929688 0 L 3.050781 0 L 3.050781 -0.191406 C 3.105469 -0.195312 3.175781 -0.203125 3.253906 -0.214844 C 3.335938 -0.226562 3.390625 -0.238281 3.421875 -0.25 C 3.480469 -0.277344 3.523438 -0.308594 3.550781 -0.351562 C 3.574219 -0.394531 3.589844 -0.449219 3.589844 -0.511719 L 3.589844 -3.101562 L 2.398438 -0.0546875 L 2.089844 -0.0546875 C 2.074219 -0.109375 2.039062 -0.214844 1.980469 -0.375 C 1.921875 -0.535156 1.875 -0.664062 1.839844 -0.757812 L 0.964844 -3.140625 L 0.964844 -1.03125 C 0.964844 -0.832031 0.976562 -0.675781 1.003906 -0.574219 C 1.03125 -0.46875 1.074219 -0.390625 1.136719 -0.34375 C 1.175781 -0.308594 1.25 -0.273438 1.355469 -0.242188 C 1.457031 -0.214844 1.53125 -0.195312 1.574219 -0.191406 L 1.574219 0 L 0.0859375 0 L 0.0859375 -0.191406 C 0.125 -0.195312 0.191406 -0.207031 0.285156 -0.222656 C 0.375 -0.242188 0.453125 -0.269531 0.511719 -0.3125 C 0.574219 -0.359375 0.621094 -0.433594 0.640625 -0.542969 C 0.664062 -0.652344 0.675781 -0.804688 0.675781 -1.007812 L 0.675781 -2.722656 C 0.675781 -2.828125 0.664062 -2.914062 0.636719 -2.980469 C 0.609375 -3.050781 0.570312 -3.105469 0.519531 -3.148438 C 0.453125 -3.199219 0.386719 -3.230469 0.320312 -3.246094 C 0.25 -3.257812 0.183594 -3.269531 0.113281 -3.273438 L 0.113281 -3.464844 L 1.707031 -3.464844 L 2.5625 -1.183594 L 3.28125 -3.035156 C 3.308594 -3.101562 3.332031 -3.183594 3.351562 -3.277344 C 3.375 -3.375 3.386719 -3.433594 3.390625 -3.464844 L 4.925781 -3.464844 L 4.925781 -3.273438 C 4.871094 -3.269531 4.816406 -3.265625 4.761719 -3.253906 C 4.703125 -3.246094 4.648438 -3.230469 4.597656 -3.214844 C 4.535156 -3.195312 4.492188 -3.160156 4.472656 -3.117188 C 4.449219 -3.070312 4.441406 -3.019531 4.441406 -2.964844 L 4.441406 -0.511719 C 4.441406 -0.453125 4.449219 -0.402344 4.472656 -0.363281 C 4.492188 -0.324219 4.535156 -0.289062 4.597656 -0.257812 C 4.628906 -0.242188 4.683594 -0.230469 4.757812 -0.21875 C 4.832031 -0.203125 4.886719 -0.195312 4.929688 -0.191406 Z "/>
</g>
<g id="glyph-0-1">
<path d="M 3.429688 -1.109375 L 3.359375 0 L 0.167969 0 L 0.167969 -0.191406 C 0.226562 -0.195312 0.292969 -0.203125 0.367188 -0.214844 C 0.445312 -0.222656 0.496094 -0.234375 0.519531 -0.242188 C 0.578125 -0.265625 0.621094 -0.296875 0.640625 -0.339844 C 0.664062 -0.378906 0.675781 -0.433594 0.675781 -0.496094 L 0.675781 -2.9375 C 0.675781 -3 0.667969 -3.046875 0.648438 -3.085938 C 0.632812 -3.121094 0.589844 -3.15625 0.519531 -3.1875 C 0.46875 -3.210938 0.410156 -3.230469 0.339844 -3.242188 C 0.265625 -3.257812 0.210938 -3.265625 0.167969 -3.273438 L 0.167969 -3.464844 L 2.070312 -3.464844 L 2.070312 -3.273438 C 2.019531 -3.269531 1.957031 -3.261719 1.886719 -3.253906 C 1.816406 -3.246094 1.753906 -3.230469 1.703125 -3.214844 C 1.636719 -3.195312 1.597656 -3.160156 1.574219 -3.117188 C 1.554688 -3.070312 1.542969 -3.019531 1.542969 -2.964844 L 1.542969 -0.6875 C 1.542969 -0.578125 1.550781 -0.492188 1.566406 -0.433594 C 1.578125 -0.371094 1.609375 -0.324219 1.648438 -0.296875 C 1.691406 -0.265625 1.75 -0.246094 1.828125 -0.234375 C 1.902344 -0.226562 2.007812 -0.222656 2.140625 -0.222656 C 2.269531 -0.222656 2.398438 -0.230469 2.519531 -0.246094 C 2.644531 -0.261719 2.730469 -0.292969 2.785156 -0.347656 C 2.867188 -0.429688 2.953125 -0.546875 3.039062 -0.695312 C 3.128906 -0.847656 3.199219 -0.984375 3.25 -1.109375 Z "/>
</g>
</g>
</defs>
<g fill="rgb(94.117647%, 94.117647%, 94.117647%)" fill-opacity="1">
<use xlink:href="#glyph-0-0" x="30" y="24.584961"/>
<use xlink:href="#glyph-0-1" x="35" y="24.584961"/>
<use xlink:href="#glyph-0-0" x="38" y="24.584961"/>
</g>
</svg>
